<?xml version="1.0" encoding="UTF-8"?><svg xmlns="http://www.w3.org/2000/svg" version="1.2" baseProfile="tiny" viewBox="0 0 16 16" width="16px" height="16px"><g fill="#920000"><rect x="3" y="8" width="1" height="5"/><rect x="10" y="8" width="1" height="1"/><rect x="4" y="13" width="1" height="1"/></g><rect x="10" y="9" width="1" height="4" fill="#b60000"/><rect height="1" fill="#490000" x="11" y="10" width="1"/><rect x="9" y="13" width="1" height="1" fill="#6d0000"/><g fill="#000"><rect fill="#000" width="16" height="2"/><rect fill="#000" y="2" width="4" height="6"/><rect width="2" height="1" fill="#000" x="5" y="2"/><rect x="8" y="2" width="2" height="1" fill="#000"/><rect width="5" height="1" fill="#000" x="11" y="2"/><rect x="4" y="3" width="1" height="1" fill="#000"/><rect width="2" height="1" fill="#000" x="6" y="3"/><rect x="9" y="3" width="2" height="1" fill="#000"/><rect x="12" y="3" width="4" height="6" fill="#000"/><rect x="5" y="4" width="2" height="1" fill="#000"/><rect y="4" width="2" height="1" fill="#000" x="8"/><rect x="11" y="4" width="5" height="1" fill="#000"/><rect fill="#000" x="4" y="5" width="1" height="3"/><rect x="6" y="5" width="2" height="3" fill="#000"/><rect fill="#000" x="9" y="5" width="2" height="3"/><rect x="5" y="6" width="11" height="2" fill="#000"/><rect y="8" width="3" height="8" fill="#000"/><rect x="11" y="8" width="5" height="1" fill="#000"/><rect height="1" fill="#000" x="13" y="9" width="3"/><rect y="10" width="1" height="2" fill="#000" x="12"/><rect height="6" fill="#000" x="14" y="10" width="2"/><rect x="11" y="11" width="2" height="1" fill="#000"/><rect width="3" height="4" fill="#000" x="13" y="12"/><rect x="3" y="13" width="1" height="3" fill="#000"/><rect y="13" width="6" height="3" fill="#000" x="10"/><rect x="4" y="14" width="12" height="2" fill="#000"/></g><g fill="#db0000"><rect x="4" y="2" width="1" height="1"/><rect y="2" width="1" height="1" x="7"/><rect x="10" y="2" width="1" height="1"/><rect x="5" y="3" width="1" height="1"/><rect x="8" y="3" width="1" height="1"/><rect x="11" y="3" width="1" height="1"/><rect x="4" y="4" width="1" height="1"/><rect width="1" height="1" x="7" y="4"/><rect x="10" y="4" width="1" height="1"/><rect height="1" x="5" y="5" width="1"/><rect x="8" y="5" width="1" height="1"/><rect x="11" y="5" width="1" height="1"/><rect x="4" y="8" width="6" height="5"/><rect y="9" width="2" height="1" x="11"/><rect x="13" y="10" width="1" height="2"/><rect x="11" y="12" width="2" height="1"/><rect width="4" height="1" x="5" y="13"/></g></svg>